<?xml version="1.0" encoding="UTF-8" standalone="no"?>
<!-- Created with Inkscape (http://www.inkscape.org/) -->

<svg
   xmlns:dc="http://purl.org/dc/elements/1.1/"
   xmlns:cc="http://creativecommons.org/ns#"
   xmlns:rdf="http://www.w3.org/1999/02/22-rdf-syntax-ns#"
   xmlns:svg="http://www.w3.org/2000/svg"
   xmlns="http://www.w3.org/2000/svg"
   xmlns:sodipodi="http://sodipodi.sourceforge.net/DTD/sodipodi-0.dtd"
   xmlns:inkscape="http://www.inkscape.org/namespaces/inkscape"
   width="1077.36"
   height="185.07001"
   id="svg5875"
   version="1.1"
   inkscape:version="0.48.4 r9939"
   sodipodi:docname="BBC tv logo 1971.svg">
  <defs
     id="defs5877" />
  <sodipodi:namedview
     id="base"
     pagecolor="#ffffff"
     bordercolor="#666666"
     borderopacity="1.0"
     inkscape:pageopacity="0.0"
     inkscape:pageshadow="2"
     inkscape:zoom="1.6286686"
     inkscape:cx="268.08619"
     inkscape:cy="84.591079"
     inkscape:document-units="px"
     inkscape:current-layer="layer1"
     showgrid="false"
     units="px"
     inkscape:window-width="1366"
     inkscape:window-height="705"
     inkscape:window-x="-4"
     inkscape:window-y="-4"
     inkscape:window-maximized="1" />
  <metadata
     id="metadata5880">
    <rdf:RDF>
      <cc:Work
         rdf:about="">
        <dc:format>image/svg+xml</dc:format>
        <dc:type
           rdf:resource="http://purl.org/dc/dcmitype/StillImage" />
        <dc:title></dc:title>
      </cc:Work>
    </rdf:RDF>
  </metadata>
  <g
     inkscape:label="Layer 1"
     inkscape:groupmode="layer"
     id="layer1"
     transform="translate(0,-867.29184)">
    <g
       id="g4876"
       transform="translate(2373.5204,2926.1222)">
      <path
         sodipodi:nodetypes="csccsc"
         inkscape:connector-curvature="0"
         d="m -1493.1438,-1878.2614 -137.9378,0 c -12.1156,0 -19.3042,-9.5154 -16.0585,-21.2538 l 36.1057,-130.555 c 3.2446,-11.7384 15.6987,-21.2538 27.8142,-21.2538 l 137.9389,0"
         id="path3850-7-2-1-860-5"
         style="fill:#ffffff;stroke:#000000;stroke-width:7;stroke-miterlimit:10;stroke-opacity:1;stroke-dasharray:none" />
      <path
         sodipodi:nodetypes="csccsc"
         inkscape:connector-curvature="0"
         d="m -1457.2921,-2051.3242 137.9389,0 c 12.1145,0 19.3041,9.5154 16.0585,21.2538 l -36.1068,130.555 c -3.2456,11.7384 -15.6987,21.2538 -27.8142,21.2538 l -137.9378,0"
         id="path3850-7-2-1-8-2-9"
         style="fill:#ffffff;stroke:#000000;stroke-width:7;stroke-miterlimit:10;stroke-opacity:1;stroke-dasharray:none" />
      <path
         sodipodi:nodetypes="sssccccccccccccccccsscsss"
         style="fill:#000000;fill-opacity:1;stroke:none"
         d="m -1549.6373,-1901.6638 c -8.2228,-1.9638 -14.8285,-7.89 -17.3041,-15.5238 -2.0411,-6.2938 -0.6624,-13.5293 6.9297,-36.3708 3.6628,-11.0196 6.7084,-20.8835 6.7352,-21.3491 l -42.9992,0 6.8691,-23.8413 44.2788,0 9.6173,-30.0985 42.9201,-1e-4 -8.9312,30.0986 70.9925,0 3.5018,49.4545 36.6051,-49.4545 39.1409,0 -72.9604,93.6025 -36.2341,-0.4868 -11.3805,-69.2744 -37.238,0 -11.1666,36.4594 c -0.2546,5.2476 3.0168,8.0742 9.3436,8.0742 2.0118,0 3.6347,0.4002 3.6065,0.8896 -0.028,0.4892 -1.0072,3.8292 -2.1755,7.4222 -1.1685,3.5929 -2.6778,8.286 -3.354,10.429 -1.1374,3.6039 -1.6664,4.0951 -7.0528,6.5497 -8.8701,4.0419 -21.2028,5.4597 -29.7442,3.4196 z"
         id="path3989-8-5-7-6-4-8"
         inkscape:connector-curvature="0" />
      <path
         inkscape:connector-curvature="0"
         d="m -1962.8994,-1899.5152 c -3.2457,11.7385 -15.6987,21.2538 -27.8142,21.2538 h -137.9377 c -12.1156,0 -19.3042,-9.5153 -16.0585,-21.2538 l 36.1057,-130.5549 c 3.2446,-11.7384 15.6986,-21.2538 27.8142,-21.2538 h 137.9387 c 12.1146,0 19.3042,9.5154 16.0585,21.2538 l -36.1067,130.5549 z"
         id="path3850-7-4-8-4"
         style="fill:#ffffff;stroke:#000000;stroke-width:7;stroke-miterlimit:10;stroke-opacity:1;stroke-dasharray:none" />
      <path
         inkscape:connector-curvature="0"
         d="m -1739.3691,-1899.5152 c -3.2457,11.7385 -15.6987,21.2538 -27.8143,21.2538 h -137.9377 c -12.1155,0 -19.3042,-9.5153 -16.0585,-21.2538 l 36.1057,-130.5549 c 3.2457,-11.7384 15.6997,-21.2538 27.8132,-21.2538 h 137.9398 c 12.1145,0 19.3042,9.5154 16.0585,21.2538 l -36.1067,130.5549 z"
         id="path3852-4-2-6-0"
         style="fill:#ffffff;stroke:#000000;stroke-width:7;stroke-miterlimit:10;stroke-opacity:1;stroke-dasharray:none" />
      <path
         inkscape:connector-curvature="0"
         d="m -2186.4306,-1899.5152 c -3.2457,11.7385 -15.6987,21.2538 -27.8143,21.2538 h -137.9377 c -12.1155,0 -19.3042,-9.5153 -16.0585,-21.2538 l 36.1057,-130.5549 c 3.2457,-11.7384 15.6987,-21.2538 27.8143,-21.2538 h 137.9377 c 12.1155,0 19.3052,9.5154 16.0585,21.2538 l -36.1057,130.5549 z"
         id="path3854-0-7-5-7"
         style="fill:#ffffff;stroke:#000000;stroke-width:7;stroke-miterlimit:10;stroke-opacity:1;stroke-dasharray:none" />
      <path
         style="fill:#000000;stroke:none"
         inkscape:connector-curvature="0"
         d="m -2229.5674,-2024.6766 c -4.5112,0 -62.5264,0 -62.5264,0 l -34.9571,119.7669 c 0,0 34.0097,0 72.6211,0 33.8624,-0.5204 51.8085,-18.7949 52.7427,-37.6121 0.9341,-18.8183 -12.4581,-23.0977 -16.8026,-24.5107 29.282,-4.2011 26.9298,-28.0947 26.9298,-33.3724 0,-8.0465 -4.2804,-24.2717 -38.0075,-24.2717 z m -12.2762,78.7912 c -0.8203,6.8156 -2.961,10.8642 -12.5862,11.4884 -4.0487,-0.036 -30.6492,0 -30.6492,0 l 6.2138,-22.2358 c 0,0 22.682,0 28.0033,0 7.2852,0.74 9.8376,3.9298 9.0183,10.7474 z m 11.0614,-40.7247 c -0.8406,5.2329 -5.9983,8.0008 -12.0789,9.121 -4.809,0 -29.3562,0 -29.3562,0 l 6.2168,-19.0277 c 0,0 25.0199,0 27.0793,0 2.6317,0 9.3172,2.5656 8.1391,9.9067 z"
         id="path3856-9-7-0-6" />
      <path
         style="fill:#000000;stroke:none"
         inkscape:connector-curvature="0"
         d="m -2006.0362,-2024.6766 c -4.5112,0 -62.5264,0 -62.5264,0 l -34.9581,119.7669 c 0,0 34.0098,0 72.6211,0 33.8624,-0.5204 51.8085,-18.7949 52.7437,-37.6121 0.9331,-18.8183 -12.4581,-23.0977 -16.8036,-24.5107 29.283,-4.2011 26.9309,-28.0947 26.9309,-33.3724 0,-8.0465 -4.2815,-24.2717 -38.0076,-24.2717 z m -12.2772,78.7912 c -0.8203,6.8156 -2.961,10.8642 -12.5862,11.4884 -4.0486,-0.036 -30.6492,0 -30.6492,0 l 6.2138,-22.2358 c 0,0 22.682,0 28.0033,0 7.2852,0.74 9.8386,3.9298 9.0183,10.7474 z m 11.0615,-40.7247 c -0.8407,5.2329 -5.9983,8.0008 -12.079,9.121 -4.809,0 -29.3562,0 -29.3562,0 l 6.2168,-19.0277 c 0,0 25.0199,0 27.0793,0 2.6317,0 9.3172,2.5656 8.1391,9.9067 z"
         id="path3858-4-9-9-3" />
      <path
         style="fill:#000000;stroke:none"
         inkscape:connector-curvature="0"
         id="p1-8-31-0-6"
         d="m -1806.9983,-1930.1085 c -7.9886,7.9886 -21.8586,3.8332 -25.7751,-0.2236 -8.2326,-8.5172 2.9437,-45.4442 5.7706,-50.4819 4.0975,-7.3015 9.1342,-23.5785 23.8784,-23.5785 14.4697,0 16.3929,7.2567 16.3929,25.0015 2.8777,0 30.2711,-1.1872 36.9677,-0.9656 3.7499,-20.9621 -4.6209,-46.0135 -40.0954,-48.0078 -29.5545,-1.661 -45.492,-0.4585 -66.8688,27.1748 -12.3107,15.9142 -18.3538,40.9117 -18.7644,63.3975 -0.37,20.1763 14.0651,37.0541 49.2103,37.0541 14.1444,0 38.9478,-3.6146 48.7702,-13.7765 8.14,-8.4236 12.5516,-9.9402 20.2403,-38.8889 -8.8871,-0.2226 -36.1758,-0.02 -36.1758,-0.02 0,0 -2.0686,11.833 -13.5509,23.3152 z" />
    </g>
  </g>
</svg>
