<?xml version="1.0" encoding="UTF-8" ?>
<!DOCTYPE svg PUBLIC "-//W3C//DTD SVG 1.1//EN" "http://www.w3.org/Graphics/SVG/1.1/DTD/svg11.dtd">
<svg width="600pt" height="229pt" viewBox="0 0 600 229" version="1.1" xmlns="http://www.w3.org/2000/svg">
<g id="#000000ff">
</g>
<g id="#db2621ff">
<path fill="#db2621" opacity="1.00" d=" M 12.26 14.28 C 20.13 6.50 30.64 0.53 41.97 0.65 C 79.65 0.67 117.33 0.71 155.01 0.49 C 172.66 0.09 190.31 0.31 207.96 0.26 C 338.57 0.23 469.18 0.32 599.79 0.21 C 599.68 56.83 599.77 113.44 599.74 170.06 C 599.50 179.02 600.57 188.16 598.31 196.94 C 596.06 206.57 590.40 215.54 582.14 221.11 C 575.88 225.33 568.49 227.95 560.96 228.52 C 374.14 228.51 187.31 228.51 0.48 228.53 C 0.36 211.02 0.80 193.51 0.64 176.00 C 1.69 150.71 0.70 125.36 1.31 100.05 C 1.24 79.35 1.51 58.65 1.46 37.95 C 1.31 28.91 5.96 20.49 12.26 14.28 M 21.12 19.23 C 13.85 26.03 10.21 36.16 10.31 46.01 C 10.33 103.15 10.32 160.30 10.32 217.44 C 83.17 217.36 156.02 217.42 228.87 217.41 C 228.82 149.60 228.84 81.78 228.85 13.97 C 228.83 12.56 228.72 11.15 228.60 9.74 C 225.41 10.26 222.18 10.24 218.96 10.18 C 160.99 10.13 103.01 10.25 45.03 10.13 C 36.31 9.97 27.60 13.43 21.12 19.23 M 277.57 32.52 C 274.08 35.95 273.01 41.22 273.46 45.94 C 274.44 50.49 278.35 53.70 282.29 55.77 C 287.28 58.76 294.18 58.02 297.97 63.03 C 300.66 66.86 296.29 72.04 292.07 71.47 C 287.68 71.57 284.32 68.29 281.95 64.96 C 278.97 65.96 276.05 67.12 273.07 68.13 C 273.07 72.52 276.57 75.91 280.19 77.86 C 286.79 81.21 295.03 82.16 301.80 78.77 C 307.74 76.14 310.68 69.03 309.71 62.83 C 308.80 57.23 303.56 53.49 298.58 51.58 C 294.28 50.20 290.55 47.65 286.78 45.23 C 284.72 43.31 284.77 40.32 285.77 37.88 C 288.35 36.93 291.32 35.55 293.99 37.06 C 296.58 38.09 298.13 40.49 299.63 42.70 C 302.37 41.44 305.16 40.32 307.98 39.24 C 307.43 33.58 302.22 29.85 296.97 28.92 C 290.42 27.81 282.83 27.91 277.57 32.52 M 353.66 29.40 C 354.23 32.27 352.85 35.78 354.54 38.26 C 358.68 38.39 362.82 38.22 366.96 38.30 C 366.90 52.12 366.95 65.94 366.93 79.77 C 370.58 79.76 374.23 79.76 377.89 79.78 C 377.86 65.95 377.88 52.12 377.88 38.29 C 382.13 38.28 386.38 38.27 390.64 38.31 C 390.67 35.13 390.67 31.95 390.62 28.77 C 380.75 28.80 370.87 28.80 361.00 28.78 C 358.54 28.80 356.01 28.50 353.66 29.40 M 446.26 30.23 C 441.09 47.01 435.77 63.73 430.46 80.47 C 433.94 80.45 437.43 80.46 440.93 80.43 C 441.81 77.10 442.77 73.78 443.76 70.48 C 449.13 70.44 454.51 70.49 459.89 70.44 C 461.13 73.78 462.22 77.17 463.46 80.50 C 466.90 80.43 470.33 80.44 473.77 80.48 C 468.90 63.71 463.90 46.98 459.17 30.18 C 454.87 30.20 450.56 30.14 446.26 30.23 M 518.19 30.15 C 518.20 46.93 518.20 63.70 518.18 80.47 C 521.82 80.45 525.46 80.45 529.11 80.46 C 529.09 73.78 529.14 67.10 529.07 60.42 C 531.60 60.41 534.13 60.41 536.67 60.43 C 539.76 67.10 542.78 73.80 545.87 80.47 C 549.51 80.45 553.14 80.45 556.79 80.46 C 553.49 73.32 550.51 66.03 547.27 58.87 C 554.57 55.68 556.80 46.35 554.92 39.22 C 553.44 33.54 547.49 30.63 542.02 30.38 C 534.09 29.93 526.13 30.34 518.19 30.15 M 267.03 107.04 C 263.12 115.21 264.63 124.79 268.16 132.81 C 273.86 146.85 287.36 156.04 292.42 170.44 C 293.73 174.63 294.60 179.93 291.54 183.59 C 289.27 186.88 283.79 186.62 281.49 183.50 C 278.67 180.02 277.60 175.54 276.53 171.30 C 272.15 171.79 267.80 172.61 263.39 172.83 C 263.48 178.57 264.65 184.39 267.26 189.53 C 272.85 201.01 289.49 203.45 299.44 196.39 C 307.18 190.94 310.35 180.74 309.02 171.63 C 307.57 159.34 299.74 149.16 292.17 139.87 C 287.38 134.63 282.95 128.71 281.16 121.73 C 280.33 118.63 280.28 115.04 282.18 112.30 C 283.83 109.70 287.62 108.98 290.18 110.69 C 293.19 113.46 294.67 117.52 294.97 121.53 C 299.63 121.53 304.28 121.20 308.94 121.00 C 309.02 112.96 305.72 104.74 299.56 99.45 C 289.65 90.91 272.39 95.33 267.03 107.04 M 393.98 94.85 C 386.95 95.60 379.88 98.92 376.14 105.15 C 371.39 113.20 371.64 122.91 371.27 131.94 C 370.68 145.29 370.68 158.68 371.69 172.01 C 372.54 178.61 372.59 185.72 376.60 191.38 C 384.11 204.12 405.13 204.64 413.38 192.43 C 418.44 185.73 418.54 176.99 419.33 169.00 C 419.81 154.66 419.65 140.31 419.30 125.97 C 418.83 118.49 418.18 110.53 413.88 104.14 C 409.55 97.73 401.55 94.48 393.98 94.85 M 535.00 98.87 C 528.39 103.11 525.36 111.32 525.63 118.93 C 526.28 128.43 530.37 137.38 535.95 144.98 C 541.75 152.23 548.42 159.02 552.27 167.62 C 554.23 171.90 555.57 177.06 553.76 181.60 C 552.12 185.67 545.97 187.59 542.87 184.11 C 539.61 180.66 538.82 175.79 537.86 171.33 C 533.26 171.43 528.78 172.62 524.19 172.82 C 524.13 179.88 525.99 187.07 530.12 192.85 C 533.11 197.00 538.15 198.98 543.04 199.79 C 550.98 201.41 560.01 198.62 564.81 191.88 C 570.59 184.08 570.93 173.48 568.24 164.44 C 565.29 155.42 559.32 147.81 553.33 140.61 C 548.52 135.11 543.80 129.13 541.91 121.94 C 541.25 118.72 540.93 114.90 543.14 112.18 C 544.94 109.85 548.70 108.80 551.09 110.86 C 554.32 113.44 555.12 117.77 555.82 121.61 C 560.69 121.46 565.56 121.15 570.44 121.08 C 569.47 113.84 567.39 106.29 562.08 100.97 C 555.18 93.73 543.09 93.55 535.00 98.87 M 315.80 97.23 C 315.80 131.05 315.81 164.87 315.80 198.69 C 320.74 198.63 325.69 198.62 330.63 198.70 C 330.62 184.71 330.60 170.71 330.65 156.71 C 338.52 156.96 346.37 155.59 353.79 152.98 C 359.16 150.95 362.47 145.63 364.14 140.38 C 366.16 132.74 366.51 124.56 364.73 116.83 C 363.18 110.60 359.95 104.34 354.48 100.72 C 342.37 95.10 328.67 98.04 315.80 97.23 M 475.73 97.72 C 475.73 102.60 475.74 107.48 475.73 112.37 C 480.91 112.38 486.10 112.31 491.28 112.42 C 491.22 141.18 491.29 169.93 491.25 198.69 C 495.97 198.63 500.71 198.62 505.44 198.71 C 505.41 169.92 505.45 141.13 505.42 112.34 C 510.53 112.38 515.65 112.35 520.77 112.38 C 520.74 107.49 520.76 102.60 520.75 97.71 C 505.75 97.75 490.74 97.72 475.73 97.72 M 427.63 99.49 C 427.64 132.56 427.63 165.64 427.64 198.72 C 432.83 198.59 438.02 198.68 443.21 198.63 C 443.17 185.12 443.20 171.62 443.19 158.11 C 445.05 158.12 446.92 158.14 448.79 158.16 C 452.91 171.60 456.52 185.20 460.48 198.69 C 465.88 198.62 471.27 198.64 476.67 198.69 C 472.71 183.89 467.66 169.38 464.00 154.52 C 470.10 151.57 473.07 144.89 474.32 138.58 C 476.06 129.28 475.47 119.26 471.54 110.58 C 468.49 103.84 461.31 99.71 454.03 99.55 C 445.23 99.45 436.43 99.60 427.63 99.49 Z" />
<path fill="#db2621" opacity="1.00" d=" M 119.91 12.66 C 127.86 38.13 136.76 63.30 145.01 88.68 C 159.02 88.60 173.02 88.96 187.02 88.84 C 199.59 89.83 212.22 88.58 224.78 89.72 C 216.70 90.94 208.85 93.22 200.91 95.09 C 158.88 106.10 116.89 118.69 78.19 138.78 C 76.62 136.32 73.90 135.05 71.67 133.31 C 51.74 118.75 31.53 104.56 11.74 89.81 C 38.89 89.72 66.04 89.83 93.19 89.75 C 101.99 64.02 110.85 38.30 119.91 12.66 Z" />
<path fill="#db2621" opacity="1.00" d=" M 529.08 39.29 C 533.16 39.45 537.35 38.80 541.37 39.72 C 546.41 41.68 545.28 50.13 540.11 51.13 C 536.44 51.41 532.76 51.17 529.09 51.23 C 529.11 47.25 529.11 43.27 529.08 39.29 Z" />
<path fill="#db2621" opacity="1.00" d=" M 451.67 44.35 C 454.30 49.42 455.05 55.27 457.00 60.64 C 453.52 60.70 450.03 60.69 446.55 60.60 C 448.54 55.27 450.11 49.81 451.67 44.35 Z" />
<path fill="#db2621" opacity="1.00" d=" M 99.71 162.73 C 135.61 130.06 178.21 103.67 225.51 91.48 C 206.34 105.31 187.10 119.03 167.91 132.83 C 165.74 134.44 163.33 135.79 161.53 137.83 C 161.83 140.37 162.82 142.75 163.55 145.18 C 170.77 168.63 178.40 191.95 185.71 215.37 C 163.73 200.01 142.03 184.23 120.13 168.77 C 119.24 168.13 117.98 168.44 117.19 169.10 C 96.51 184.43 75.34 199.09 54.41 214.07 C 67.24 195.13 82.93 178.23 99.71 162.73 Z" />
<path fill="#db2621" opacity="1.00" d=" M 393.50 109.60 C 398.92 107.98 402.97 114.20 403.27 118.96 C 404.12 134.94 404.73 150.97 404.19 166.98 C 403.80 172.32 403.62 177.85 401.54 182.87 C 400.30 185.80 397.21 188.49 393.84 187.40 C 390.25 186.21 388.71 182.35 387.85 178.99 C 385.98 170.46 386.51 161.67 386.43 153.00 C 386.38 142.98 386.49 132.96 387.23 122.97 C 386.97 117.99 388.21 111.55 393.50 109.60 Z" />
<path fill="#db2621" opacity="1.00" d=" M 331.72 111.16 C 336.93 110.14 343.44 110.44 346.88 115.10 C 349.63 119.53 349.28 125.06 349.30 130.07 C 349.30 134.19 347.97 138.93 343.98 140.87 C 340.23 143.28 335.64 142.55 331.44 142.92 C 331.30 132.33 331.93 121.75 331.72 111.16 Z" />
<path fill="#db2621" opacity="1.00" d=" M 442.26 110.90 C 446.77 110.63 451.97 110.12 455.67 113.28 C 459.66 116.15 459.27 121.58 459.76 125.92 C 460.04 130.76 460.34 136.79 455.97 140.04 C 452.06 143.12 446.93 142.67 442.27 142.90 C 442.24 132.23 442.26 121.56 442.26 110.90 Z" />
</g>
<g id="#fcfcfcff">
<path fill="#fcfcfc" opacity="1.00" d=" M 21.12 19.23 C 27.60 13.43 36.31 9.97 45.03 10.13 C 103.01 10.25 160.99 10.13 218.96 10.18 C 222.18 10.24 225.41 10.26 228.60 9.74 C 228.72 11.15 228.83 12.56 228.85 13.97 C 228.84 81.78 228.82 149.60 228.87 217.41 C 156.02 217.42 83.17 217.36 10.32 217.44 C 10.32 160.30 10.33 103.15 10.31 46.01 C 10.21 36.16 13.85 26.03 21.12 19.23 M 119.91 12.66 C 110.85 38.30 101.99 64.02 93.19 89.75 C 66.04 89.83 38.89 89.72 11.74 89.81 C 31.53 104.56 51.74 118.75 71.67 133.31 C 73.90 135.05 76.62 136.32 78.19 138.78 C 116.89 118.69 158.88 106.10 200.91 95.09 C 208.85 93.22 216.70 90.94 224.78 89.72 C 212.22 88.58 199.59 89.83 187.02 88.84 C 173.02 88.96 159.02 88.60 145.01 88.68 C 136.76 63.30 127.86 38.13 119.91 12.66 M 99.71 162.73 C 82.93 178.23 67.24 195.13 54.41 214.07 C 75.34 199.09 96.51 184.43 117.19 169.10 C 117.98 168.44 119.24 168.13 120.13 168.77 C 142.03 184.23 163.73 200.01 185.71 215.37 C 178.40 191.95 170.77 168.63 163.55 145.18 C 162.82 142.75 161.83 140.37 161.53 137.83 C 163.33 135.79 165.74 134.44 167.91 132.83 C 187.10 119.03 206.34 105.31 225.51 91.48 C 178.21 103.67 135.61 130.06 99.71 162.73 Z" />
<path fill="#fcfcfc" opacity="1.00" d=" M 277.57 32.52 C 282.83 27.91 290.42 27.81 296.97 28.92 C 302.22 29.85 307.43 33.58 307.98 39.24 C 305.16 40.32 302.37 41.44 299.63 42.70 C 298.13 40.49 296.58 38.09 293.99 37.06 C 291.32 35.55 288.35 36.93 285.77 37.88 C 284.77 40.32 284.72 43.31 286.78 45.23 C 290.55 47.65 294.28 50.20 298.58 51.58 C 303.56 53.49 308.80 57.23 309.71 62.83 C 310.68 69.03 307.74 76.14 301.80 78.77 C 295.03 82.16 286.79 81.21 280.19 77.86 C 276.57 75.91 273.07 72.52 273.07 68.13 C 276.05 67.12 278.97 65.96 281.95 64.96 C 284.32 68.29 287.68 71.57 292.07 71.47 C 296.29 72.04 300.66 66.86 297.97 63.03 C 294.18 58.02 287.28 58.76 282.29 55.77 C 278.35 53.70 274.44 50.49 273.46 45.94 C 273.01 41.22 274.08 35.95 277.57 32.52 Z" />
<path fill="#fcfcfc" opacity="1.00" d=" M 353.66 29.40 C 356.01 28.50 358.54 28.80 361.00 28.78 C 370.87 28.80 380.75 28.80 390.62 28.77 C 390.67 31.95 390.67 35.13 390.64 38.31 C 386.38 38.27 382.13 38.28 377.88 38.29 C 377.88 52.12 377.86 65.95 377.89 79.78 C 374.23 79.76 370.58 79.76 366.93 79.77 C 366.95 65.94 366.90 52.12 366.96 38.30 C 362.82 38.22 358.68 38.39 354.54 38.26 C 352.85 35.78 354.23 32.27 353.66 29.40 Z" />
<path fill="#fcfcfc" opacity="1.00" d=" M 446.26 30.23 C 450.56 30.14 454.87 30.20 459.17 30.18 C 463.90 46.98 468.90 63.71 473.77 80.48 C 470.33 80.44 466.90 80.43 463.46 80.50 C 462.22 77.17 461.13 73.78 459.89 70.44 C 454.51 70.49 449.13 70.44 443.76 70.48 C 442.77 73.78 441.81 77.10 440.93 80.43 C 437.43 80.46 433.94 80.45 430.46 80.47 C 435.77 63.73 441.09 47.01 446.26 30.23 M 451.67 44.35 C 450.11 49.81 448.54 55.27 446.55 60.60 C 450.03 60.69 453.52 60.70 457.00 60.64 C 455.05 55.27 454.30 49.42 451.67 44.35 Z" />
<path fill="#fcfcfc" opacity="1.00" d=" M 518.19 30.15 C 526.13 30.34 534.09 29.93 542.02 30.38 C 547.49 30.63 553.44 33.54 554.92 39.22 C 556.80 46.35 554.57 55.68 547.27 58.87 C 550.51 66.03 553.49 73.32 556.79 80.46 C 553.14 80.45 549.51 80.45 545.87 80.47 C 542.78 73.80 539.76 67.10 536.67 60.43 C 534.13 60.41 531.60 60.41 529.07 60.42 C 529.14 67.10 529.09 73.78 529.11 80.46 C 525.46 80.45 521.82 80.45 518.18 80.47 C 518.20 63.70 518.20 46.93 518.19 30.15 M 529.08 39.29 C 529.11 43.27 529.11 47.25 529.09 51.23 C 532.76 51.17 536.44 51.41 540.11 51.13 C 545.28 50.13 546.41 41.68 541.37 39.72 C 537.35 38.80 533.16 39.45 529.08 39.29 Z" />
<path fill="#fcfcfc" opacity="1.00" d=" M 267.03 107.04 C 272.39 95.33 289.65 90.91 299.56 99.45 C 305.72 104.74 309.02 112.96 308.94 121.00 C 304.28 121.20 299.63 121.53 294.97 121.53 C 294.67 117.52 293.19 113.46 290.18 110.69 C 287.62 108.98 283.83 109.70 282.18 112.30 C 280.28 115.04 280.33 118.63 281.16 121.73 C 282.95 128.71 287.38 134.63 292.17 139.87 C 299.74 149.16 307.57 159.34 309.02 171.63 C 310.35 180.74 307.18 190.94 299.44 196.39 C 289.49 203.45 272.85 201.01 267.26 189.53 C 264.65 184.39 263.48 178.57 263.39 172.83 C 267.80 172.61 272.15 171.79 276.53 171.30 C 277.60 175.54 278.67 180.02 281.49 183.50 C 283.79 186.62 289.27 186.88 291.54 183.59 C 294.60 179.93 293.73 174.63 292.42 170.44 C 287.36 156.04 273.86 146.85 268.16 132.81 C 264.63 124.79 263.12 115.21 267.03 107.04 Z" />
<path fill="#fcfcfc" opacity="1.00" d=" M 393.98 94.85 C 401.55 94.48 409.55 97.73 413.88 104.14 C 418.18 110.53 418.83 118.49 419.30 125.97 C 419.65 140.31 419.81 154.66 419.33 169.00 C 418.54 176.99 418.44 185.73 413.38 192.43 C 405.13 204.64 384.11 204.12 376.60 191.38 C 372.59 185.72 372.54 178.61 371.69 172.01 C 370.68 158.68 370.68 145.29 371.27 131.94 C 371.64 122.91 371.39 113.20 376.14 105.15 C 379.88 98.92 386.95 95.60 393.98 94.85 M 393.50 109.60 C 388.21 111.55 386.97 117.99 387.23 122.97 C 386.49 132.96 386.38 142.98 386.43 153.00 C 386.51 161.67 385.98 170.46 387.85 178.99 C 388.71 182.35 390.25 186.21 393.84 187.40 C 397.21 188.49 400.30 185.80 401.54 182.87 C 403.62 177.85 403.80 172.32 404.19 166.98 C 404.73 150.97 404.12 134.94 403.27 118.96 C 402.97 114.20 398.92 107.98 393.50 109.60 Z" />
<path fill="#fcfcfc" opacity="1.00" d=" M 535.00 98.87 C 543.09 93.55 555.18 93.73 562.08 100.97 C 567.39 106.29 569.47 113.84 570.44 121.08 C 565.56 121.15 560.69 121.46 555.82 121.61 C 555.12 117.77 554.32 113.44 551.09 110.86 C 548.70 108.80 544.94 109.85 543.14 112.18 C 540.93 114.90 541.25 118.72 541.91 121.94 C 543.80 129.13 548.52 135.11 553.33 140.61 C 559.32 147.81 565.29 155.42 568.24 164.44 C 570.93 173.48 570.59 184.08 564.81 191.88 C 560.01 198.62 550.98 201.41 543.04 199.79 C 538.15 198.98 533.11 197.00 530.12 192.85 C 525.99 187.07 524.13 179.88 524.19 172.82 C 528.78 172.62 533.26 171.43 537.86 171.33 C 538.82 175.79 539.61 180.66 542.87 184.11 C 545.97 187.59 552.12 185.67 553.76 181.60 C 555.57 177.06 554.23 171.90 552.27 167.62 C 548.42 159.02 541.75 152.23 535.95 144.98 C 530.37 137.38 526.28 128.43 525.63 118.93 C 525.36 111.32 528.39 103.11 535.00 98.87 Z" />
<path fill="#fcfcfc" opacity="1.00" d=" M 315.80 97.23 C 328.67 98.04 342.37 95.10 354.48 100.72 C 359.95 104.34 363.18 110.60 364.73 116.83 C 366.51 124.56 366.16 132.74 364.14 140.38 C 362.47 145.63 359.16 150.95 353.79 152.98 C 346.37 155.59 338.52 156.96 330.65 156.71 C 330.60 170.71 330.62 184.71 330.63 198.70 C 325.69 198.62 320.74 198.63 315.80 198.69 C 315.81 164.87 315.80 131.05 315.80 97.23 M 331.72 111.16 C 331.93 121.75 331.30 132.33 331.44 142.92 C 335.64 142.55 340.23 143.28 343.98 140.87 C 347.97 138.93 349.30 134.19 349.30 130.07 C 349.28 125.06 349.63 119.53 346.88 115.10 C 343.44 110.44 336.93 110.14 331.72 111.16 Z" />
<path fill="#fcfcfc" opacity="1.00" d=" M 475.73 97.72 C 490.74 97.72 505.75 97.75 520.75 97.71 C 520.76 102.60 520.74 107.49 520.77 112.38 C 515.65 112.35 510.53 112.38 505.42 112.34 C 505.45 141.13 505.41 169.92 505.44 198.71 C 500.71 198.62 495.97 198.63 491.25 198.69 C 491.29 169.93 491.22 141.18 491.28 112.42 C 486.10 112.31 480.91 112.38 475.73 112.37 C 475.74 107.48 475.73 102.60 475.73 97.72 Z" />
<path fill="#fcfcfc" opacity="1.00" d=" M 427.63 99.49 C 436.43 99.60 445.23 99.45 454.03 99.55 C 461.31 99.71 468.49 103.84 471.54 110.58 C 475.47 119.26 476.06 129.28 474.32 138.58 C 473.07 144.89 470.10 151.57 464.00 154.52 C 467.66 169.38 472.71 183.89 476.67 198.69 C 471.27 198.64 465.88 198.62 460.48 198.69 C 456.52 185.20 452.91 171.60 448.79 158.16 C 446.92 158.14 445.05 158.12 443.19 158.11 C 443.20 171.62 443.17 185.12 443.21 198.63 C 438.02 198.68 432.83 198.59 427.64 198.72 C 427.63 165.64 427.64 132.56 427.63 99.49 M 442.26 110.90 C 442.26 121.56 442.24 132.23 442.27 142.90 C 446.93 142.67 452.06 143.12 455.97 140.04 C 460.34 136.79 460.04 130.76 459.76 125.92 C 459.27 121.58 459.66 116.15 455.67 113.28 C 451.97 110.12 446.77 110.63 442.26 110.90 Z" />
</g>
</svg>
